<svg xmlns="http://www.w3.org/2000/svg" width="272" height="212" viewBox="0 0 272 212" fill="none">
<path d="M19.0691 190.544V211.338H14.2478V202.823H4.82129V211.33H0V190.544H4.82129V198.743H14.2478V190.544H19.0691Z" fill="white"/>
<path d="M41.1628 209.211C40.2939 208.266 39.6258 207.155 39.1992 205.945C38.7726 204.735 38.5963 203.45 38.6811 202.17V190.52H43.5024V201.98C43.5024 205.689 45.0627 207.556 48.1335 207.556C48.7719 207.598 49.4118 207.499 50.0079 207.267C50.604 207.034 51.1416 206.673 51.5828 206.21C52.4785 204.991 52.9005 203.487 52.7701 201.98V190.52H57.5194V202.17C57.6019 203.45 57.4246 204.734 56.9981 205.944C56.5716 207.154 55.9048 208.265 55.0376 209.211C54.1072 210.072 53.012 210.736 51.8182 211.162C50.6243 211.589 49.3564 211.769 48.091 211.692C46.8243 211.77 45.5551 211.59 44.3598 211.163C43.1646 210.737 42.0683 210.073 41.137 209.211H41.1628Z" fill="white"/>
<path d="M96.0046 211.338V198.861L89.8612 209.14H87.6878L81.5943 199.121V211.338H77.0776V190.544H81.0717L88.8456 203.47L96.5013 190.544H100.447L100.517 211.338H96.0046Z" fill="white"/>
<path d="M134.003 206.895H124.338L122.491 211.338H117.58L126.842 190.544H131.591L140.877 211.338H135.845L133.999 206.895H134.003ZM132.49 203.233L129.205 195.271L125.92 203.233H132.512H132.49Z" fill="white"/>
<path d="M176.983 190.544V211.338H173.037L162.696 198.72V211.338H157.938V190.544H161.926L172.252 203.161V190.544H177.001H176.983Z" fill="white"/>
<path d="M233.695 206.895H224.03L222.184 211.338H217.272L226.534 190.544H231.283L240.57 211.338H235.536L233.689 206.895H233.695ZM232.183 203.233L228.898 195.271L225.613 203.233H232.205H232.183Z" fill="white"/>
<path d="M257.584 190.544H262.405V211.338H257.584V190.544Z" fill="white"/>
<path d="M262.263 66.5606H238.396V166.607H262.263V66.5606Z" fill="white"/>
<path d="M162.216 56.6134C147.871 56.6415 134.125 62.3671 124.001 72.5304C113.878 82.6937 108.206 96.4622 108.234 110.807C108.263 125.152 113.988 138.898 124.151 149.022C134.315 159.145 148.083 164.817 162.428 164.789C173.487 164.789 184.995 161.291 192.745 155.502V164.321H215.996V110.7C215.992 96.4055 210.331 82.6936 200.25 72.5594C190.168 62.4252 176.486 56.6924 162.192 56.6134H162.216ZM162.521 140.946C156.538 140.946 150.691 139.172 145.717 135.849C140.743 132.525 136.866 127.802 134.577 122.275C132.288 116.748 131.689 110.667 132.856 104.799C134.023 98.9322 136.903 93.5428 141.133 89.3128C145.363 85.0828 150.753 82.2022 156.62 81.0351C162.487 79.868 168.569 80.467 174.095 82.7563C179.622 85.0455 184.346 88.9223 187.669 93.8962C190.993 98.8702 192.767 104.718 192.767 110.7C192.795 114.68 192.032 118.626 190.522 122.308C189.012 125.99 186.785 129.336 183.971 132.15C181.157 134.965 177.811 137.191 174.129 138.701C170.446 140.211 166.5 140.974 162.521 140.946Z" fill="white"/>
<path d="M24.1269 166.607V105.55C24.2442 99.7793 26.6274 94.2863 30.7615 90.2582C34.8956 86.2302 40.4487 83.9905 46.2206 84.0233C49.0495 84.0159 51.852 84.5678 54.4669 85.647C57.0819 86.7263 59.4578 88.3117 61.458 90.3121C63.4583 92.3126 65.0435 94.6886 66.1225 97.3036C67.2016 99.9187 67.7532 102.721 67.7456 105.55V166.607H92.1789V106.117C92.0572 93.9656 87.1762 82.3463 78.5836 73.7534C69.9911 65.1605 58.372 60.279 46.2206 60.1569C38.4864 60.2206 30.8911 62.219 24.1269 65.9697V28.7308H0.260498V166.583H24.1269V166.607Z" fill="white"/>
<path d="M207.229 15.3324C218.123 13.2051 220.224 11.0853 222.352 0.209276C222.367 0.149309 222.403 0.0962534 222.452 0.0583933C222.501 0.0205332 222.561 0 222.623 0C222.685 0 222.745 0.0205332 222.794 0.0583933C222.844 0.0962534 222.879 0.149309 222.895 0.209276C225.022 11.1038 227.142 13.2051 238.018 15.3324C238.078 15.3481 238.131 15.3833 238.168 15.4324C238.206 15.4815 238.227 15.5418 238.227 15.6038C238.227 15.6658 238.206 15.7261 238.168 15.7752C238.131 15.8243 238.078 15.8595 238.018 15.8752C227.123 18.0024 225.022 20.1222 222.895 30.9983C222.879 31.0583 222.844 31.1113 222.794 31.1492C222.745 31.187 222.685 31.2076 222.623 31.2076C222.561 31.2076 222.501 31.187 222.452 31.1492C222.403 31.1113 222.367 31.0583 222.352 30.9983C220.224 20.1038 218.105 18.0024 207.229 15.8752C207.169 15.8595 207.116 15.8243 207.078 15.7752C207.04 15.7261 207.019 15.6658 207.019 15.6038C207.019 15.5418 207.04 15.4815 207.078 15.4324C207.116 15.3833 207.169 15.3481 207.229 15.3324Z" fill="url(#paint0_linear_56_3)"/>
<path d="M209.309 47.137C214.886 46.0494 215.973 44.9636 217.064 39.3816C217.071 39.3516 217.087 39.3247 217.111 39.3054C217.134 39.2861 217.164 39.2756 217.195 39.2756C217.225 39.2756 217.255 39.2861 217.279 39.3054C217.302 39.3247 217.319 39.3516 217.325 39.3816C218.412 44.9581 219.498 46.0457 225.08 47.137C225.11 47.1432 225.137 47.1595 225.156 47.1832C225.176 47.2069 225.186 47.2366 225.186 47.2672C225.186 47.2977 225.176 47.3274 225.156 47.3511C225.137 47.3748 225.11 47.3911 225.08 47.3973C219.504 48.4849 218.416 49.5707 217.325 55.1528C217.319 55.1827 217.302 55.2096 217.279 55.2289C217.255 55.2482 217.225 55.2587 217.195 55.2587C217.164 55.2587 217.134 55.2482 217.111 55.2289C217.087 55.2096 217.071 55.1827 217.064 55.1528C215.977 49.5762 214.891 48.4886 209.309 47.3973C209.279 47.3911 209.252 47.3748 209.233 47.3511C209.214 47.3274 209.203 47.2977 209.203 47.2672C209.203 47.2366 209.214 47.2069 209.233 47.1832C209.252 47.1595 209.279 47.1432 209.309 47.137Z" fill="url(#paint1_linear_56_3)"/>
<path d="M230.386 33.408C244.634 30.5496 247.658 27.5471 250.495 13.2993C250.518 13.185 250.58 13.0822 250.67 13.0084C250.761 12.9346 250.874 12.8942 250.991 12.8942C251.107 12.8942 251.22 12.9346 251.311 13.0084C251.401 13.0822 251.463 13.185 251.486 13.2993C254.345 27.5471 257.347 30.5718 271.595 33.408C271.709 33.4313 271.812 33.4933 271.886 33.5837C271.96 33.6741 272 33.7871 272 33.9038C272 34.0205 271.96 34.1336 271.886 34.2239C271.812 34.3143 271.709 34.3764 271.595 34.3996C257.347 37.258 254.323 40.2605 251.486 54.5083C251.463 54.6226 251.401 54.7254 251.311 54.7993C251.22 54.8731 251.107 54.9134 250.991 54.9134C250.874 54.9134 250.761 54.8731 250.67 54.7993C250.58 54.7254 250.518 54.6226 250.495 54.5083C247.636 40.2605 244.634 37.2359 230.386 34.3996C230.272 34.3764 230.169 34.3143 230.095 34.2239C230.021 34.1336 229.981 34.0205 229.981 33.9038C229.981 33.7871 230.021 33.6741 230.095 33.5837C230.169 33.4933 230.272 33.4313 230.386 33.408Z" fill="url(#paint2_linear_56_3)"/>
<defs>
<linearGradient id="paint0_linear_56_3" x1="207.019" y1="15.6038" x2="238.227" y2="15.6038" gradientUnits="userSpaceOnUse">
<stop stop-color="#709FF5"/>
<stop offset="1" stop-color="#4AEDF3"/>
</linearGradient>
<linearGradient id="paint1_linear_56_3" x1="209.187" y1="47.2831" x2="225.17" y2="47.2831" gradientUnits="userSpaceOnUse">
<stop stop-color="#709FF5"/>
<stop offset="1" stop-color="#4AEDF3"/>
</linearGradient>
<linearGradient id="paint2_linear_56_3" x1="229.981" y1="33.9038" x2="272.042" y2="33.9038" gradientUnits="userSpaceOnUse">
<stop stop-color="#709FF5"/>
<stop offset="1" stop-color="#4AEDF3"/>
</linearGradient>
</defs>
</svg>