<svg xmlns="http://www.w3.org/2000/svg" viewBox="0 0 48 48" width="20" height="20">
    <g>
        <circle cx="34" cy="36" r="5" fill="#bfbfbf"></circle>
        <path fill="#fc6459"
            d="M21,20a1,1,0,0,1,1-1H24A11,11,0,0,0,14,9.05V11a1,1,0,0,1-2,0V9.05A11,11,0,0,0,2.05,19H4a1,1,0,0,1,0,2H2.05A11,11,0,0,0,12,31V29a1,1,0,0,1,2,0V31A11,11,0,0,0,24,21H22A1,1,0,0,1,21,20ZM18,16.46l-3,3a2,2,0,0,1,0,1l1.61,1.61a1,1,0,0,1-.71,1.71c-.53,0-.6-.18-2.32-1.9a2,2,0,1,1,0-3.86l3-3A1,1,0,0,1,18,16.46Z">
        </path>
        <path fill="#424242"
            d="M45.37,33.57l-1.9-.76A9.83,9.83,0,0,0,43,31.55l.81-1.87a1,1,0,0,0-.21-1.1l-2.13-2.13a1,1,0,0,0-1.1-.21l-1.87.81L38,26.86V14.93A8,8,0,0,0,37.43.78a1,1,0,0,0-1.43.9V6.46L34,7.8,32,6.46V1.68a1,1,0,0,0-1.43-.9A8,8,0,0,0,30,14.93V26.86l-.45.19-1.87-.81a1,1,0,0,0-1.1.21l-2.13,2.13a1,1,0,0,0-.21,1.1l.81,1.87a9.83,9.83,0,0,0-.52,1.26l-1.9.76a1,1,0,0,0-.63.93v3a1,1,0,0,0,.63.93l1.9.76a9.83,9.83,0,0,0,.52,1.26l-.81,1.87a1,1,0,0,0,.21,1.1l2.13,2.13a1,1,0,0,0,1.1.21L29.55,45a9.83,9.83,0,0,0,1.26.52l.76,1.9a1,1,0,0,0,.93.63h3a1,1,0,0,0,.93-.63l.76-1.9A9.83,9.83,0,0,0,38.45,45l1.87.81a1,1,0,0,0,1.1-.21l2.13-2.13a1,1,0,0,0,.21-1.1L43,40.45a9.83,9.83,0,0,0,.52-1.26l1.9-.76A1,1,0,0,0,46,37.5v-3A1,1,0,0,0,45.37,33.57ZM30,3.52V7a1,1,0,0,0,.45.83l3,2a1,1,0,0,0,1.1,0l3-2A1,1,0,0,0,38,7V3.52a6,6,0,0,1-1.43,9.9,1,1,0,0,0-.57.9v9.82c-.33-.19-.19-.14-3.5-.14a1.07,1.07,0,0,0-.5.14V14.32a1,1,0,0,0-.57-.9A6,6,0,0,1,30,3.52Zm14,33.3-1.71.69a1,1,0,0,0-.59.66c-.82,2.89-1.42,1.11-.05,4.32l-1.16,1.16-1.7-.72a1,1,0,0,0-.88,0c-1.53.87-2.1.56-2.4,1.32L34.82,46H33.18l-.69-1.71a1,1,0,0,0-.66-.6c-1.72-.48-1.88-1.08-2.62-.76l-1.7.72-1.16-1.16.72-1.69a1,1,0,0,0,0-.89c-.86-1.52-.56-2.1-1.32-2.4L24,36.82V35.18l1.71-.69a1,1,0,0,0,.59-.66c.5-1.74,1.09-1.89.77-2.63l-.72-1.69,1.16-1.16,1.7.72a1,1,0,0,0,.88,0c1.53-.87,2.1-.56,2.4-1.32L33.18,26h1.64l.69,1.71a1,1,0,0,0,.66.6c1.72.48,1.88,1.08,2.62.76l1.7-.72,1.16,1.16-.72,1.69a1,1,0,0,0,0,.89c.86,1.53.56,2.1,1.32,2.4l1.71.69Z">
        </path>
        <path fill="#424242"
            d="M38.66 38.83a1 1 0 0 1-.93-1.36 4 4 0 0 0-5.2-5.2 1 1 0 1 1-.72-1.86 6 6 0 0 1 7.78 7.78A1 1 0 0 1 38.66 38.83zM28.41 33.81a1 1 0 0 1 1.86.72 4 4 0 0 0 5.2 5.2 1 1 0 1 1 .72 1.86A6 6 0 0 1 28.41 33.81z">
        </path>
    </g>
</svg>